<svg width="128" height="128" viewBox="0 0 128 128" fill="none" xmlns="http://www.w3.org/2000/svg">
<g opacity="0.4" filter="url(#filter0_f)">
<circle cx="64" cy="64" r="32" fill="#EAC03A"/>
</g>
<path fill-rule="evenodd" clip-rule="evenodd" d="M55.7375 64.4573C54.9771 64.4573 54.3652 65.0692 54.3652 65.8297C54.3652 66.5901 54.9771 67.202 55.7375 67.202C56.498 67.202 57.1099 66.5901 57.1099 65.8297C57.1099 65.0692 56.498 64.4573 55.7375 64.4573ZM57.5673 58.0532C56.8068 58.0532 56.195 58.665 56.195 59.4255C56.195 60.186 56.8068 60.7978 57.5673 60.7978C58.3278 60.7978 58.9396 60.186 58.9396 59.4255C58.9396 58.665 58.3278 58.0532 57.5673 58.0532ZM63.9715 49.3618C63.0051 49.3618 62.0159 49.4533 61.0153 49.6477C55.3316 50.757 50.7515 55.3257 49.6307 60.9922C47.6523 71.0044 55.9891 78.638 63.028 78.638C63.5026 78.638 63.9715 78.6037 64.4346 78.5293C66.7904 78.1634 67.9455 75.4073 66.8648 73.2859C65.5439 70.69 67.4309 67.6594 70.347 67.6594H74.9043C76.9513 67.6594 78.6095 65.9669 78.6153 63.9256C78.5867 55.8746 72.0396 49.3618 63.9715 49.3618ZM74.8986 65.8297H70.3413C68.3229 65.8297 66.4874 66.8532 65.441 68.5629C64.4003 70.2611 64.3203 72.3367 65.2294 74.1208C65.5096 74.6697 65.5039 75.3558 65.2237 75.9105C65.0865 76.1735 64.772 76.631 64.1544 76.7282C63.7942 76.7853 63.4168 76.8139 63.028 76.8139C59.906 76.8139 56.5038 75.0242 54.1365 72.148C51.6206 69.0832 50.6542 65.2521 51.4262 61.3582C52.404 56.4064 56.4008 52.4267 61.3698 51.4546C62.2389 51.2831 63.1138 51.1973 63.9715 51.1973C71.0103 51.1973 76.7569 56.9096 76.7798 63.9256C76.7798 64.972 75.9335 65.8297 74.8986 65.8297ZM70.3756 57.1383C69.6151 57.1383 69.0033 57.7501 69.0033 58.5106C69.0033 59.2711 69.6151 59.8829 70.3756 59.8829C71.1361 59.8829 71.7479 59.2711 71.7479 58.5106C71.7479 57.7501 71.1361 57.1383 70.3756 57.1383ZM63.0566 54.3937C62.2961 54.3937 61.6843 55.0055 61.6843 55.766C61.6843 56.5265 62.2961 57.1383 63.0566 57.1383C63.8171 57.1383 64.4289 56.5265 64.4289 55.766C64.4289 55.0055 63.8171 54.3937 63.0566 54.3937Z" fill="#EAC03A"/>
<defs>
<filter id="filter0_f" x="0" y="0" width="128" height="128" filterUnits="userSpaceOnUse" color-interpolation-filters="sRGB">
<feFlood flood-opacity="0" result="BackgroundImageFix"/>
<feBlend mode="normal" in="SourceGraphic" in2="BackgroundImageFix" result="shape"/>
<feGaussianBlur stdDeviation="16" result="effect1_foregroundBlur"/>
</filter>
</defs>
</svg>
